<svg xmlns="http://www.w3.org/2000/svg" width="1280" height="720" viewBox="0 0 1280 720" font-family="'Segoe UI', system-ui, -apple-system, Helvetica, Arial, sans-serif"><defs>
  <linearGradient id="bg" x1="0" y1="0" x2="0" y2="1">
    <stop offset="0" stop-color="#0a0e16"/><stop offset="1" stop-color="#0d1117"/>
  </linearGradient>
  <linearGradient id="accent" x1="0" y1="0" x2="1" y2="0">
    <stop offset="0" stop-color="#2dd4bf"/><stop offset="0.5" stop-color="#4493f8"/><stop offset="1" stop-color="#2dd4bf"/>
  </linearGradient>
  <pattern id="grid" width="32" height="32" patternUnits="userSpaceOnUse">
    <path d="M 32 0 L 0 0 0 32" fill="none" stroke="#161d27" stroke-width="1"/>
  </pattern>
  <filter id="soft" x="-20%" y="-20%" width="140%" height="140%">
    <feDropShadow dx="0" dy="4" stdDeviation="8" flood-color="#000000" flood-opacity="0.45"/>
  </filter>
  <filter id="glow" x="-60%" y="-60%" width="220%" height="220%">
    <feDropShadow dx="0" dy="0" stdDeviation="6" flood-color="#2dd4bf" flood-opacity="0.5"/>
  </filter>
</defs><rect x="0" y="0" width="1280" height="720" rx="0" ry="0" fill="url(#bg)"/><rect x="0" y="0" width="1280" height="720" fill="url(#grid)" opacity="0.5"/><rect x="0" y="0" width="1280" height="4" fill="url(#accent)"/><text x="1252" y="698" font-size="12.5" fill="#69788b" font-family="'SF Mono','JetBrains Mono','Fira Code',Menlo,Consolas,'Liberation Mono',monospace" font-weight="400" text-anchor="end">github.com/TAIPANBOX/terraform-provider-taipan</text><text x="40" y="56" font-size="34" fill="#e6edf3" font-family="'SF Mono','JetBrains Mono','Fira Code',Menlo,Consolas,'Liberation Mono',monospace" font-weight="700" text-anchor="start">taipan</text><text x="170" y="56" font-size="22" fill="#9aa7b8" font-family="'Segoe UI', system-ui, -apple-system, Helvetica, Arial, sans-serif" font-weight="600" text-anchor="start">- Governance as Code</text><text x="40" y="84" font-size="15" fill="#9aa7b8" font-family="'Segoe UI', system-ui, -apple-system, Helvetica, Arial, sans-serif" font-weight="400" text-anchor="start">Terraform HCL becomes reviewed, planned, applied TokenFuse Cloud budgets and Agent Passports.</text><line x1="40" y1="100" x2="1240" y2="100" stroke="#222b38" stroke-width="1"/><text x="42" y="138" font-size="12" fill="#2dd4bf" font-family="'SF Mono','JetBrains Mono','Fira Code',Menlo,Consolas,'Liberation Mono',monospace" font-weight="700" text-anchor="start" letter-spacing="1.5">01 · HCL CONFIGURATION</text><rect x="40" y="150" width="300" height="520" rx="14" ry="14" fill="#141a23" stroke="#283341" stroke-width="1" filter="url(#soft)"/><text x="378" y="138" font-size="12" fill="#4493f8" font-family="'SF Mono','JetBrains Mono','Fira Code',Menlo,Consolas,'Liberation Mono',monospace" font-weight="700" text-anchor="start" letter-spacing="1.5">02 · TERRAFORM CORE</text><rect x="376" y="150" width="236" height="520" rx="14" ry="14" fill="#141a23" stroke="#283341" stroke-width="1" filter="url(#soft)"/><text x="650" y="138" font-size="12" fill="#2dd4bf" font-family="'SF Mono','JetBrains Mono','Fira Code',Menlo,Consolas,'Liberation Mono',monospace" font-weight="700" text-anchor="start" letter-spacing="1.5">03 · TAIPAN PROVIDER</text><rect x="648" y="150" width="300" height="520" rx="14" ry="14" fill="#141a23" stroke="#283341" stroke-width="1" filter="url(#soft)"/><text x="986" y="138" font-size="12" fill="#4493f8" font-family="'SF Mono','JetBrains Mono','Fira Code',Menlo,Consolas,'Liberation Mono',monospace" font-weight="700" text-anchor="start" letter-spacing="1.5">04 · RECONCILED STATE</text><rect x="984" y="150" width="256" height="520" rx="14" ry="14" fill="#141a23" stroke="#283341" stroke-width="1" filter="url(#soft)"/><rect x="56" y="172" width="268" height="54" rx="10" ry="10" fill="#1b2331" stroke="#222b38" stroke-width="1"/><rect x="56" y="172" width="4" height="54" rx="2" ry="2" fill="#2dd4bf" stroke="#283341" stroke-width="1"/><text x="74" y="195" font-size="14.5" fill="#e6edf3" font-family="'Segoe UI', system-ui, -apple-system, Helvetica, Arial, sans-serif" font-weight="600" text-anchor="start">provider "taipan" {}</text><text x="74" y="213" font-size="12" fill="#69788b" font-family="'SF Mono','JetBrains Mono','Fira Code',Menlo,Consolas,'Liberation Mono',monospace" font-weight="400" text-anchor="start">cloud_url · cloud_key</text><rect x="56" y="238" width="268" height="54" rx="10" ry="10" fill="#1b2331" stroke="#222b38" stroke-width="1"/><rect x="56" y="238" width="4" height="54" rx="2" ry="2" fill="#2dd4bf" stroke="#283341" stroke-width="1"/><text x="74" y="261" font-size="14.5" fill="#e6edf3" font-family="'Segoe UI', system-ui, -apple-system, Helvetica, Arial, sans-serif" font-weight="600" text-anchor="start">resource "taipan_budget"</text><text x="74" y="279" font-size="12" fill="#69788b" font-family="'SF Mono','JetBrains Mono','Fira Code',Menlo,Consolas,'Liberation Mono',monospace" font-weight="400" text-anchor="start">run_id · limit_usd</text><rect x="56" y="304" width="268" height="54" rx="10" ry="10" fill="#1b2331" stroke="#222b38" stroke-width="1"/><rect x="56" y="304" width="4" height="54" rx="2" ry="2" fill="#2dd4bf" stroke="#283341" stroke-width="1"/><text x="74" y="327" font-size="14.5" fill="#e6edf3" font-family="'Segoe UI', system-ui, -apple-system, Helvetica, Arial, sans-serif" font-weight="600" text-anchor="start">resource</text><text x="74" y="345" font-size="12" fill="#69788b" font-family="'SF Mono','JetBrains Mono','Fira Code',Menlo,Consolas,'Liberation Mono',monospace" font-weight="400" text-anchor="start">taipan_agent_passport</text><rect x="56" y="370" width="268" height="54" rx="10" ry="10" fill="#1b2331" stroke="#222b38" stroke-width="1"/><rect x="56" y="370" width="4" height="54" rx="2" ry="2" fill="#2dd4bf" stroke="#283341" stroke-width="1"/><text x="74" y="393" font-size="14.5" fill="#e6edf3" font-family="'Segoe UI', system-ui, -apple-system, Helvetica, Arial, sans-serif" font-weight="600" text-anchor="start">labels = { … }</text><text x="74" y="411" font-size="12" fill="#69788b" font-family="'SF Mono','JetBrains Mono','Fira Code',Menlo,Consolas,'Liberation Mono',monospace" font-weight="400" text-anchor="start">owner · runtime · attestation</text><rect x="56" y="436" width="268" height="54" rx="10" ry="10" fill="#1b2331" stroke="#222b38" stroke-width="1"/><rect x="56" y="436" width="4" height="54" rx="2" ry="2" fill="#2dd4bf" stroke="#283341" stroke-width="1"/><text x="74" y="459" font-size="14.5" fill="#e6edf3" font-family="'Segoe UI', system-ui, -apple-system, Helvetica, Arial, sans-serif" font-weight="600" text-anchor="start">.tf files</text><text x="74" y="477" font-size="12" fill="#69788b" font-family="'SF Mono','JetBrains Mono','Fira Code',Menlo,Consolas,'Liberation Mono',monospace" font-weight="400" text-anchor="start">version-controlled, PR-reviewed</text><rect x="392" y="214" width="204" height="56" rx="10" ry="10" fill="#1b2331" stroke="#222b38" stroke-width="1"/><circle cx="410" cy="242.0" r="3.5" fill="#4493f8"/><text x="426" y="236" font-size="14" fill="#e6edf3" font-family="'SF Mono','JetBrains Mono','Fira Code',Menlo,Consolas,'Liberation Mono',monospace" font-weight="600" text-anchor="start">terraform plan</text><text x="426" y="253" font-size="11.5" fill="#69788b" font-family="'SF Mono','JetBrains Mono','Fira Code',Menlo,Consolas,'Liberation Mono',monospace" font-weight="400" text-anchor="start">diff vs. state</text><rect x="392" y="282" width="204" height="56" rx="10" ry="10" fill="#1b2331" stroke="#222b38" stroke-width="1"/><circle cx="410" cy="310.0" r="3.5" fill="#4493f8"/><text x="426" y="304" font-size="14" fill="#e6edf3" font-family="'SF Mono','JetBrains Mono','Fira Code',Menlo,Consolas,'Liberation Mono',monospace" font-weight="600" text-anchor="start">terraform apply</text><text x="426" y="321" font-size="11.5" fill="#69788b" font-family="'SF Mono','JetBrains Mono','Fira Code',Menlo,Consolas,'Liberation Mono',monospace" font-weight="400" text-anchor="start">reconcile toward plan</text><rect x="392" y="350" width="204" height="56" rx="10" ry="10" fill="#1b2331" stroke="#222b38" stroke-width="1"/><circle cx="410" cy="378.0" r="3.5" fill="#4493f8"/><text x="426" y="372" font-size="14" fill="#e6edf3" font-family="'SF Mono','JetBrains Mono','Fira Code',Menlo,Consolas,'Liberation Mono',monospace" font-weight="600" text-anchor="start">terraform state</text><text x="426" y="389" font-size="11.5" fill="#69788b" font-family="'SF Mono','JetBrains Mono','Fira Code',Menlo,Consolas,'Liberation Mono',monospace" font-weight="400" text-anchor="start">run_id, passport id keys</text><rect x="392" y="418" width="204" height="56" rx="10" ry="10" fill="#1b2331" stroke="#222b38" stroke-width="1"/><circle cx="410" cy="446.0" r="3.5" fill="#4493f8"/><text x="426" y="440" font-size="14" fill="#e6edf3" font-family="'SF Mono','JetBrains Mono','Fira Code',Menlo,Consolas,'Liberation Mono',monospace" font-weight="600" text-anchor="start">plugin-framework</text><text x="426" y="457" font-size="11.5" fill="#69788b" font-family="'SF Mono','JetBrains Mono','Fira Code',Menlo,Consolas,'Liberation Mono',monospace" font-weight="400" text-anchor="start">Go SDK, gRPC to core</text><rect x="718.0" y="265.0" width="160" height="70" rx="14" ry="14" fill="#1a212c" stroke="#2dd4bf" stroke-width="1.6" filter="url(#glow)"/><text x="798.0" y="292" font-size="17" fill="#2dd4bf" font-family="'SF Mono','JetBrains Mono','Fira Code',Menlo,Consolas,'Liberation Mono',monospace" font-weight="700" text-anchor="middle">taipan</text><text x="798.0" y="312" font-size="12.5" fill="#e6edf3" font-family="'Segoe UI', system-ui, -apple-system, Helvetica, Arial, sans-serif" font-weight="600" text-anchor="middle">provider</text><line x1="612" y1="300" x2="641" y2="300" stroke="#2dd4bf" stroke-width="2.2"/><path d="M 648 300 l -9 -5 l 0 10 z" fill="#2dd4bf"/><path d="M 798.0 335.0 C 757.0 335.0, 757.0 402.0, 710.0 402.0" fill="none" stroke="#3fb950" stroke-width="1.8" opacity="0.6"/><path d="M 716.0 402.0 l -9 -5 l 0 10 z" fill="#3fb950"/><rect x="646.0" y="400.0" width="140" height="60" rx="16" ry="16" fill="none" stroke="#3fb950" stroke-width="1.1" opacity="0.3"/><rect x="648.0" y="402.0" width="136" height="56" rx="14" ry="14" fill="#1a212c" stroke="#3fb950" stroke-width="2"/><text x="716.0" y="427" font-size="12" fill="#e6edf3" font-family="'SF Mono','JetBrains Mono','Fira Code',Menlo,Consolas,'Liberation Mono',monospace" font-weight="700" text-anchor="middle">taipan_budget</text><text x="716.0" y="443" font-size="9.5" fill="#3fb950" font-family="'Segoe UI', system-ui, -apple-system, Helvetica, Arial, sans-serif" font-weight="700" text-anchor="middle" letter-spacing="0.5">shipped</text><path d="M 798.0 335.0 C 839.0 335.0, 839.0 402.0, 874.0 402.0" fill="none" stroke="#3fb950" stroke-width="1.8" opacity="0.6"/><path d="M 880.0 402.0 l -9 -5 l 0 10 z" fill="#3fb950"/><rect x="810.0" y="400.0" width="140" height="60" rx="16" ry="16" fill="none" stroke="#3fb950" stroke-width="1.1" opacity="0.3"/><rect x="812.0" y="402.0" width="136" height="56" rx="14" ry="14" fill="#1a212c" stroke="#3fb950" stroke-width="2"/><text x="880.0" y="427" font-size="12" fill="#e6edf3" font-family="'SF Mono','JetBrains Mono','Fira Code',Menlo,Consolas,'Liberation Mono',monospace" font-weight="700" text-anchor="middle">agent_passport</text><text x="880.0" y="443" font-size="9.5" fill="#3fb950" font-family="'Segoe UI', system-ui, -apple-system, Helvetica, Arial, sans-serif" font-weight="700" text-anchor="middle" letter-spacing="0.5">shipped</text><path d="M 798.0 335.0 C 798.0 335.0, 798.0 512.0, 792.0 512.0" fill="none" stroke="#3fb950" stroke-width="1.8" opacity="0.6"/><path d="M 798.0 512.0 l -9 -5 l 0 10 z" fill="#3fb950"/><rect x="728.0" y="510.0" width="140" height="60" rx="16" ry="16" fill="none" stroke="#3fb950" stroke-width="1.1" opacity="0.3"/><rect x="730.0" y="512.0" width="136" height="56" rx="14" ry="14" fill="#1a212c" stroke="#3fb950" stroke-width="2"/><text x="798.0" y="537" font-size="12" fill="#e6edf3" font-family="'SF Mono','JetBrains Mono','Fira Code',Menlo,Consolas,'Liberation Mono',monospace" font-weight="700" text-anchor="middle">wardryx_policy</text><text x="798.0" y="553" font-size="9.5" fill="#3fb950" font-family="'Segoe UI', system-ui, -apple-system, Helvetica, Arial, sans-serif" font-weight="700" text-anchor="middle" letter-spacing="0.5">shipped</text><text x="798.0" y="600" font-size="11" fill="#9aa7b8" font-family="'Segoe UI', system-ui, -apple-system, Helvetica, Arial, sans-serif" font-weight="400" text-anchor="middle">agent-stack-go/passport.Parse</text><text x="798.0" y="618" font-size="11" fill="#69788b" font-family="'Segoe UI', system-ui, -apple-system, Helvetica, Arial, sans-serif" font-weight="400" text-anchor="middle">same validation Idryx runs on ingest</text><line x1="948" y1="300" x2="977" y2="300" stroke="#2dd4bf" stroke-width="2.2"/><path d="M 984 300 l -9 -5 l 0 10 z" fill="#2dd4bf"/><rect x="1000" y="172" width="224" height="70" rx="10" ry="10" fill="#1b2331" stroke="#222b38" stroke-width="1"/><rect x="1000" y="172" width="4" height="70" rx="2" ry="2" fill="#2dd4bf" stroke="#283341" stroke-width="1"/><text x="1018" y="200" font-size="14.5" fill="#e6edf3" font-family="'Segoe UI', system-ui, -apple-system, Helvetica, Arial, sans-serif" font-weight="600" text-anchor="start">TokenFuse Cloud</text><text x="1018" y="220" font-size="11.5" fill="#69788b" font-family="'SF Mono','JetBrains Mono','Fira Code',Menlo,Consolas,'Liberation Mono',monospace" font-weight="400" text-anchor="start">POST /v1/runs/{run}/budget</text><rect x="1000" y="256" width="224" height="70" rx="10" ry="10" fill="#1b2331" stroke="#222b38" stroke-width="1"/><rect x="1000" y="256" width="4" height="70" rx="2" ry="2" fill="#4493f8" stroke="#283341" stroke-width="1"/><text x="1018" y="284" font-size="14.5" fill="#e6edf3" font-family="'Segoe UI', system-ui, -apple-system, Helvetica, Arial, sans-serif" font-weight="600" text-anchor="start">Passport file</text><text x="1018" y="304" font-size="11.5" fill="#69788b" font-family="'SF Mono','JetBrains Mono','Fira Code',Menlo,Consolas,'Liberation Mono',monospace" font-weight="400" text-anchor="start">*.json, mode 0600, on disk</text><rect x="1000" y="340" width="224" height="70" rx="10" ry="10" fill="#1b2331" stroke="#222b38" stroke-width="1"/><rect x="1000" y="340" width="4" height="70" rx="2" ry="2" fill="#2dd4bf" stroke="#283341" stroke-width="1"/><text x="1018" y="368" font-size="14.5" fill="#e6edf3" font-family="'Segoe UI', system-ui, -apple-system, Helvetica, Arial, sans-serif" font-weight="600" text-anchor="start">Idryx · Qryx</text><text x="1018" y="388" font-size="11.5" fill="#69788b" font-family="'SF Mono','JetBrains Mono','Fira Code',Menlo,Consolas,'Liberation Mono',monospace" font-weight="400" text-anchor="start">read the passport at ingest</text><line x1="1000" y1="426" x2="1224" y2="426" stroke="#222b38" stroke-width="1"/><text x="1000" y="450" font-size="12.5" fill="#9aa7b8" font-family="'Segoe UI', system-ui, -apple-system, Helvetica, Arial, sans-serif" font-weight="600" text-anchor="start">→ PR-reviewed, planned,</text><text x="1000" y="468" font-size="12.5" fill="#2dd4bf" font-family="'Segoe UI', system-ui, -apple-system, Helvetica, Arial, sans-serif" font-weight="700" text-anchor="start">   diffed, auditable</text></svg>