<svg xmlns="http://www.w3.org/2000/svg" width="1280" height="720" viewBox="0 0 1280 720" font-family="'Segoe UI', system-ui, -apple-system, Helvetica, Arial, sans-serif"><defs>
  <linearGradient id="bg" x1="0" y1="0" x2="0" y2="1">
    <stop offset="0" stop-color="#0a0e16"/><stop offset="1" stop-color="#0d1117"/>
  </linearGradient>
  <linearGradient id="accent" x1="0" y1="0" x2="1" y2="0">
    <stop offset="0" stop-color="#2dd4bf"/><stop offset="0.5" stop-color="#4493f8"/><stop offset="1" stop-color="#2dd4bf"/>
  </linearGradient>
  <pattern id="grid" width="32" height="32" patternUnits="userSpaceOnUse">
    <path d="M 32 0 L 0 0 0 32" fill="none" stroke="#161d27" stroke-width="1"/>
  </pattern>
  <filter id="soft" x="-20%" y="-20%" width="140%" height="140%">
    <feDropShadow dx="0" dy="4" stdDeviation="8" flood-color="#000000" flood-opacity="0.45"/>
  </filter>
  <filter id="glow" x="-60%" y="-60%" width="220%" height="220%">
    <feDropShadow dx="0" dy="0" stdDeviation="6" flood-color="#2dd4bf" flood-opacity="0.5"/>
  </filter>
</defs><rect x="0" y="0" width="1280" height="720" rx="0" ry="0" fill="url(#bg)"/><rect x="0" y="0" width="1280" height="720" fill="url(#grid)" opacity="0.5"/><rect x="0" y="0" width="1280" height="4" fill="url(#accent)"/><text x="1252" y="698" font-size="12.5" fill="#69788b" font-family="'SF Mono','JetBrains Mono','Fira Code',Menlo,Consolas,'Liberation Mono',monospace" font-weight="400" text-anchor="end">github.com/TAIPANBOX/terraform-provider-taipan</text><text x="40" y="56" font-size="28" fill="#e6edf3" font-family="'Segoe UI', system-ui, -apple-system, Helvetica, Arial, sans-serif" font-weight="700" text-anchor="start">Resources</text><text x="40" y="84" font-size="15" fill="#9aa7b8" font-family="'Segoe UI', system-ui, -apple-system, Helvetica, Arial, sans-serif" font-weight="400" text-anchor="start">Every taipan_* resource is plain Terraform: reviewed in a PR, planned before it applies, diffed on drift.</text><line x1="40" y1="100" x2="1240" y2="100" stroke="#222b38" stroke-width="1"/><rect x="40" y="250" width="250" height="220" rx="14" ry="14" fill="#141a23" stroke="#283341" stroke-width="1" filter="url(#soft)"/><text x="165.0" y="294" font-size="16" fill="#e6edf3" font-family="'Segoe UI', system-ui, -apple-system, Helvetica, Arial, sans-serif" font-weight="700" text-anchor="middle">Terraform</text><text x="165.0" y="318" font-size="16" fill="#e6edf3" font-family="'Segoe UI', system-ui, -apple-system, Helvetica, Arial, sans-serif" font-weight="700" text-anchor="middle">State</text><circle cx="119.0" cy="376" r="9" fill="#1a212c" stroke="#3fb950" stroke-width="2"/><circle cx="165.0" cy="392" r="9" fill="#1a212c" stroke="#3fb950" stroke-width="2"/><circle cx="211.0" cy="376" r="9" fill="#1a212c" stroke="#e3b341" stroke-width="2"/><circle cx="141.0" cy="422" r="9" fill="#1a212c" stroke="#2dd4bf" stroke-width="2"/><circle cx="193.0" cy="424" r="9" fill="#1a212c" stroke="#4493f8" stroke-width="2"/><text x="165.0" y="452" font-size="11.5" fill="#69788b" font-family="'SF Mono','JetBrains Mono','Fira Code',Menlo,Consolas,'Liberation Mono',monospace" font-weight="400" text-anchor="middle">one node per resource instance</text><rect x="330" y="300" width="170" height="120" rx="14" ry="14" fill="#1a212c" stroke="#2dd4bf" stroke-width="1.6" filter="url(#glow)"/><text x="415.0" y="346" font-size="18" fill="#2dd4bf" font-family="'SF Mono','JetBrains Mono','Fira Code',Menlo,Consolas,'Liberation Mono',monospace" font-weight="700" text-anchor="middle">taipan</text><text x="415.0" y="370" font-size="13.5" fill="#e6edf3" font-family="'Segoe UI', system-ui, -apple-system, Helvetica, Arial, sans-serif" font-weight="600" text-anchor="middle">provider</text><text x="415.0" y="390" font-size="10.5" fill="#69788b" font-family="'SF Mono','JetBrains Mono','Fira Code',Menlo,Consolas,'Liberation Mono',monospace" font-weight="400" text-anchor="middle">2 resources · 0 data sources</text><line x1="290" y1="360.0" x2="323" y2="360.0" stroke="#2dd4bf" stroke-width="2.2"/><path d="M 330 360.0 l -9 -5 l 0 10 z" fill="#2dd4bf"/><rect x="560" y="150" width="330" height="150" rx="14" ry="14" fill="#1b2331" stroke="#283341" stroke-width="1" filter="url(#soft)"/><rect x="560" y="150" width="6" height="150" rx="3" ry="3" fill="#3fb950" stroke="#283341" stroke-width="1"/><circle cx="594" cy="188" r="13" fill="none" stroke="#3fb950" stroke-width="2"/><circle cx="594" cy="188" r="4" fill="#3fb950"/><text x="618" y="186" font-size="17" fill="#e6edf3" font-family="'Segoe UI', system-ui, -apple-system, Helvetica, Arial, sans-serif" font-weight="700" text-anchor="start">taipan_budget</text><text x="618" y="208" font-size="10" fill="#3fb950" font-family="'SF Mono','JetBrains Mono','Fira Code',Menlo,Consolas,'Liberation Mono',monospace" font-weight="700" text-anchor="start" letter-spacing="1.5">SHIPPED</text><line x1="584" y1="226" x2="866" y2="226" stroke="#222b38" stroke-width="1"/><text x="584" y="250" font-size="13" fill="#e6edf3" font-family="'SF Mono','JetBrains Mono','Fira Code',Menlo,Consolas,'Liberation Mono',monospace" font-weight="600" text-anchor="start">run_id · limit_usd</text><text x="584" y="274" font-size="12" fill="#69788b" font-family="'Segoe UI', system-ui, -apple-system, Helvetica, Arial, sans-serif" font-weight="400" text-anchor="start">POST /v1/runs/{run}/budget, TokenFuse Cloud</text><path d="M 500 360.0 C 527.0 360.0, 527.0 225.0, 548 225.0" fill="none" stroke="#3fb950" stroke-width="1.8" opacity="0.55"/><path d="M 554 225.0 l -9 -5 l 0 10 z" fill="#3fb950"/><rect x="920" y="150" width="330" height="150" rx="14" ry="14" fill="#1b2331" stroke="#283341" stroke-width="1" filter="url(#soft)"/><rect x="920" y="150" width="6" height="150" rx="3" ry="3" fill="#3fb950" stroke="#283341" stroke-width="1"/><circle cx="954" cy="188" r="13" fill="none" stroke="#3fb950" stroke-width="2"/><circle cx="954" cy="188" r="4" fill="#3fb950"/><text x="978" y="186" font-size="17" fill="#e6edf3" font-family="'Segoe UI', system-ui, -apple-system, Helvetica, Arial, sans-serif" font-weight="700" text-anchor="start">taipan_agent_passport</text><text x="978" y="208" font-size="10" fill="#3fb950" font-family="'SF Mono','JetBrains Mono','Fira Code',Menlo,Consolas,'Liberation Mono',monospace" font-weight="700" text-anchor="start" letter-spacing="1.5">SHIPPED</text><line x1="944" y1="226" x2="1226" y2="226" stroke="#222b38" stroke-width="1"/><text x="944" y="250" font-size="13" fill="#e6edf3" font-family="'SF Mono','JetBrains Mono','Fira Code',Menlo,Consolas,'Liberation Mono',monospace" font-weight="600" text-anchor="start">id · owner · runtime · attestation_method</text><text x="944" y="274" font-size="12" fill="#69788b" font-family="'Segoe UI', system-ui, -apple-system, Helvetica, Arial, sans-serif" font-weight="400" text-anchor="start">renders + validates a passport file, no API call</text><path d="M 500 340 C 620 124, 870 124, 990 124" fill="none" stroke="#3fb950" stroke-width="1.8" opacity="0.55"/><path d="M 990 124 L 990 144" fill="none" stroke="#3fb950" stroke-width="1.8" opacity="0.55"/><path d="M 990 150 l -6 -9 l 12 0 z" fill="#3fb950"/><rect x="560" y="318" width="330" height="150" rx="14" ry="14" fill="#1b2331" stroke="#283341" stroke-width="1" filter="url(#soft)"/><rect x="560" y="318" width="6" height="150" rx="3" ry="3" fill="#e3b341" stroke="#283341" stroke-width="1"/><circle cx="594" cy="356" r="13" fill="none" stroke="#e3b341" stroke-width="2"/><circle cx="594" cy="356" r="4" fill="#e3b341"/><text x="618" y="354" font-size="17" fill="#e6edf3" font-family="'Segoe UI', system-ui, -apple-system, Helvetica, Arial, sans-serif" font-weight="700" text-anchor="start">wardryx_policy</text><text x="618" y="376" font-size="10" fill="#e3b341" font-family="'SF Mono','JetBrains Mono','Fira Code',Menlo,Consolas,'Liberation Mono',monospace" font-weight="700" text-anchor="start" letter-spacing="1.5">PLANNED</text><line x1="584" y1="394" x2="866" y2="394" stroke="#222b38" stroke-width="1"/><text x="584" y="418" font-size="13" fill="#e6edf3" font-family="'SF Mono','JetBrains Mono','Fira Code',Menlo,Consolas,'Liberation Mono',monospace" font-weight="600" text-anchor="start">not yet built</text><text x="584" y="442" font-size="12" fill="#69788b" font-family="'Segoe UI', system-ui, -apple-system, Helvetica, Arial, sans-serif" font-weight="400" text-anchor="start">Wardryx has no policy-management API today</text><path d="M 500 360.0 C 527.0 360.0, 527.0 393.0, 548 393.0" fill="none" stroke="#e3b341" stroke-width="1.8" opacity="0.55"/><path d="M 554 393.0 l -9 -5 l 0 10 z" fill="#e3b341"/><rect x="920" y="318" width="330" height="150" rx="14" ry="14" fill="#1b2331" stroke="#283341" stroke-width="1" stroke-dasharray="6,5" filter="url(#soft)"/><text x="944" y="354" font-size="17" fill="#9aa7b8" font-family="'Segoe UI', system-ui, -apple-system, Helvetica, Arial, sans-serif" font-weight="700" text-anchor="start">Data sources</text><text x="944" y="376" font-size="10" fill="#69788b" font-family="'SF Mono','JetBrains Mono','Fira Code',Menlo,Consolas,'Liberation Mono',monospace" font-weight="700" text-anchor="start" letter-spacing="1.5">NONE TODAY</text><line x1="944" y1="394" x2="1226" y2="394" stroke="#222b38" stroke-width="1"/><text x="944" y="418" font-size="13" fill="#e6edf3" font-family="'SF Mono','JetBrains Mono','Fira Code',Menlo,Consolas,'Liberation Mono',monospace" font-weight="600" text-anchor="start">Provider.DataSources() = []</text><text x="944" y="442" font-size="12" fill="#69788b" font-family="'Segoe UI', system-ui, -apple-system, Helvetica, Arial, sans-serif" font-weight="400" text-anchor="start">read state back via terraform state / refresh</text></svg>